<svg width="24" height="24" viewBox="0 0 24 24" fill="none" xmlns="http://www.w3.org/2000/svg">
<path d="M2.04799 18.566C1.98301 18.8583 1.9845 19.1615 2.05237 19.4532C2.12023 19.7449 2.25274 20.0176 2.4401 20.2513C2.62746 20.4849 2.8649 20.6735 3.13489 20.8031C3.40487 20.9326 3.70052 20.9999 3.99999 21H20C20.2995 20.9999 20.5951 20.9326 20.8651 20.8031C21.1351 20.6735 21.3725 20.4849 21.5599 20.2513C21.7472 20.0176 21.8798 19.7449 21.9476 19.4532C22.0155 19.1615 22.017 18.8583 21.952 18.566L19.952 9.566C19.8533 9.12187 19.6061 8.72468 19.2512 8.43998C18.8963 8.15528 18.455 8.00008 18 8H5.99999C5.54503 8.00008 5.10368 8.15528 4.7488 8.43998C4.39392 8.72468 4.14672 9.12187 4.04799 9.566L2.04799 18.566Z" stroke="#333333" stroke-width="1.5" stroke-linecap="round" stroke-linejoin="round"/>
<path d="M8 11V6C8 4.93913 8.42143 3.92172 9.17157 3.17157C9.92172 2.42143 10.9391 2 12 2C13.0609 2 14.0783 2.42143 14.8284 3.17157C15.5786 3.92172 16 4.93913 16 6V11" stroke="#333333" stroke-width="1.5" stroke-linecap="round" stroke-linejoin="round"/>
</svg>
