<svg width="92" height="24" viewBox="0 0 92 24" fill="none" xmlns="http://www.w3.org/2000/svg">
<path d="M76.9198 1.83486C75.4274 1.83486 74.2042 2.29969 73.25 3.22936C72.3204 4.15902 71.5864 5.52905 71.0482 7.33945C71.0482 7.41284 70.9748 7.44954 70.828 7.44954C70.7057 7.42508 70.6445 7.38838 70.6445 7.33945C70.6935 6.99694 70.7424 6.53211 70.7913 5.94495C70.8402 5.33333 70.8892 4.67278 70.9381 3.9633C71.0115 3.25382 71.0604 2.56881 71.0849 1.90826C71.1338 1.22324 71.1583 0.672783 71.1583 0.256882C71.1583 0.134558 71.2195 0.073396 71.3418 0.073396C71.4886 0.073396 71.562 0.134558 71.562 0.256882C71.562 0.50153 71.6843 0.685016 71.9289 0.80734C72.1981 0.9052 72.4916 0.978594 72.8097 1.02752C73.1277 1.05199 73.3968 1.06422 73.617 1.06422C75.721 1.13762 78.1797 1.17431 80.9932 1.17431C82.7302 1.17431 84.1002 1.16208 85.1032 1.13761C86.1308 1.08869 87.1216 1.06422 88.0757 1.06422C88.9565 1.06422 89.617 1.01529 90.0574 0.917433C90.5222 0.795109 90.8158 0.538227 90.9381 0.146789C90.9626 0.0489295 91.036 0 91.1583 0C91.2806 0 91.3418 0.0489295 91.3418 0.146789C91.3173 0.538227 91.2806 1.07645 91.2317 1.76147C91.1828 2.42202 91.1461 3.1315 91.1216 3.88991C91.0971 4.62385 91.0727 5.30887 91.0482 5.94495C91.0237 6.55658 91.0115 7.02141 91.0115 7.33945C91.0115 7.38838 90.9381 7.41284 90.7913 7.41284C90.669 7.41284 90.5956 7.38838 90.5711 7.33945C90.302 5.40673 89.7149 4.01223 88.8097 3.15596C87.9045 2.27523 86.6935 1.83486 85.1766 1.83486C84.5161 1.83486 84.0146 1.89602 83.6721 2.01835C83.3295 2.14067 83.0971 2.37309 82.9748 2.7156C82.8525 3.03364 82.7913 3.49847 82.7913 4.11009V21.0275C82.7913 21.737 82.8647 22.2752 83.0115 22.6422C83.1828 23.0092 83.4886 23.2538 83.9289 23.3761C84.3938 23.4985 85.091 23.5596 86.0207 23.5596C86.0941 23.5596 86.1308 23.633 86.1308 23.7798C86.1308 23.9266 86.0941 24 86.0207 24C85.3601 24 84.6017 23.9878 83.7455 23.9633C82.9136 23.9388 81.9962 23.9266 80.9932 23.9266C80.039 23.9266 79.1461 23.9388 78.3143 23.9633C77.4825 23.9878 76.7118 24 76.0023 24C75.9534 24 75.9289 23.9266 75.9289 23.7798C75.9289 23.633 75.9534 23.5596 76.0023 23.5596C76.932 23.5596 77.6292 23.4985 78.0941 23.3761C78.5589 23.2538 78.8647 23.0092 79.0115 22.6422C79.1828 22.2752 79.2684 21.737 79.2684 21.0275V4.0367C79.2684 3.42508 79.2072 2.97248 79.0849 2.6789C78.987 2.36086 78.7669 2.14067 78.4244 2.01835C78.0818 1.89602 77.5803 1.83486 76.9198 1.83486Z" fill="#333333"/>
<path d="M57.6692 4.07339V20.8807C57.6692 21.4924 57.7303 21.9572 57.8527 22.2752C57.975 22.5933 58.2074 22.8012 58.5499 22.8991C58.8924 22.9969 59.3939 23.0459 60.0545 23.0459H62.2563C63.9933 23.0459 65.4612 22.5566 66.66 21.578C67.8588 20.5994 68.6539 19.3027 69.0453 17.6881C69.0698 17.6147 69.1432 17.5902 69.2655 17.6147C69.3878 17.6391 69.449 17.6881 69.449 17.7615C69.3756 18.5199 69.3022 19.4373 69.2288 20.5138C69.1554 21.5657 69.1187 22.5443 69.1187 23.4495C69.1187 23.8165 68.9352 24 68.5683 24H51.3939C51.345 24 51.3206 23.9266 51.3206 23.7798C51.3206 23.633 51.345 23.5596 51.3939 23.5596C52.1768 23.5596 52.764 23.4985 53.1554 23.3761C53.5713 23.2538 53.8404 23.0092 53.9628 22.6422C54.1095 22.2752 54.1829 21.737 54.1829 21.0275V4.03669C54.1829 3.32721 54.1095 2.80122 53.9628 2.45871C53.8404 2.09174 53.5713 1.84709 53.1554 1.72476C52.764 1.57798 52.1768 1.50458 51.3939 1.50458C51.345 1.50458 51.3206 1.43119 51.3206 1.2844C51.3206 1.13761 51.345 1.06422 51.3939 1.06422C51.9811 1.06422 52.6661 1.08868 53.449 1.13761C54.2319 1.16207 55.0514 1.17431 55.9077 1.17431C56.8129 1.17431 57.6447 1.16207 58.4031 1.13761C59.186 1.08868 59.871 1.06422 60.4582 1.06422C60.5316 1.06422 60.5683 1.13761 60.5683 1.2844C60.5683 1.43119 60.5316 1.50458 60.4582 1.50458C59.6753 1.50458 59.0759 1.57798 58.66 1.72476C58.2686 1.84709 57.9995 2.09174 57.8527 2.45871C57.7303 2.82568 57.6692 3.36391 57.6692 4.07339Z" fill="#333333"/>
<path d="M47.6187 24H31.6921C31.6187 24 31.582 23.9266 31.582 23.7798C31.582 23.633 31.6187 23.5596 31.6921 23.5596C32.4995 23.5596 33.0989 23.4985 33.4903 23.3761C33.8817 23.2538 34.1386 23.0092 34.2609 22.6422C34.4077 22.2752 34.4811 21.737 34.4811 21.0275V4.03669C34.4811 3.32721 34.4077 2.80122 34.2609 2.45871C34.1386 2.09174 33.8817 1.84709 33.4903 1.72476C33.0989 1.57798 32.4995 1.50458 31.6921 1.50458C31.6187 1.50458 31.582 1.43119 31.582 1.2844C31.582 1.13761 31.6187 1.06422 31.6921 1.06422H46.9582C47.2028 1.06422 47.3251 1.17431 47.3251 1.39449L47.3985 6.16513C47.3985 6.21406 47.3374 6.25076 47.2151 6.27522C47.0927 6.27522 47.0071 6.23853 46.9582 6.16513C46.6891 4.77064 46.1264 3.73088 45.2701 3.04587C44.4138 2.36085 43.2885 2.01834 41.894 2.01834H40.3894C39.7777 2.01834 39.2885 2.09174 38.9215 2.23853C38.579 2.36085 38.3343 2.58104 38.1875 2.89908C38.0407 3.19266 37.9674 3.59633 37.9674 4.11009V20.8807C37.9674 21.3945 38.0285 21.8226 38.1508 22.1651C38.2976 22.4832 38.5178 22.7156 38.8114 22.8624C39.105 22.9847 39.5209 23.0459 40.0591 23.0459H41.8573C43.5209 23.0459 44.8664 22.6544 45.894 21.8716C46.9215 21.0642 47.6554 19.8777 48.0958 18.3119C48.1203 18.2385 48.1936 18.2141 48.316 18.2385C48.4628 18.263 48.5362 18.2997 48.5362 18.3486C48.4383 19.0336 48.3527 19.8532 48.2793 20.8073C48.2059 21.7615 48.1692 22.6422 48.1692 23.4495C48.1692 23.8165 47.9857 24 47.6187 24ZM45.5637 15.7064C45.5637 14.6789 45.2212 13.896 44.5362 13.3578C43.8511 12.8196 42.8236 12.5505 41.4536 12.5505H36.316V11.5963H41.4903C42.8603 11.5963 43.8756 11.3639 44.5362 10.8991C45.1967 10.4342 45.527 9.76146 45.527 8.88073C45.527 8.80733 45.5881 8.77064 45.7105 8.77064C45.8573 8.77064 45.9307 8.80733 45.9307 8.88073C45.9307 9.6636 45.9184 10.2752 45.894 10.7156C45.894 11.156 45.894 11.6086 45.894 12.0734C45.894 12.6605 45.9062 13.2477 45.9307 13.8349C45.9796 14.3975 46.004 15.0214 46.004 15.7064C46.004 15.7553 45.9307 15.7798 45.7839 15.7798C45.6371 15.7798 45.5637 15.7553 45.5637 15.7064Z" fill="#333333"/>
<path d="M3.30275 19.5596L3.66972 1.90825L4.66055 1.98165L4.25688 19.5596C4.23242 20.8563 4.47706 21.8471 4.99083 22.5321C5.52905 23.2171 6.32416 23.5596 7.37615 23.5596C7.44954 23.5596 7.48624 23.633 7.48624 23.7798C7.48624 23.9266 7.44954 24 7.37615 24C6.83792 24 6.28746 23.9878 5.72477 23.9633C5.16208 23.9388 4.52599 23.9266 3.81651 23.9266C3.08257 23.9266 2.40979 23.9388 1.79817 23.9633C1.21101 23.9878 0.648318 24 0.110092 24C0.0366973 24 0 23.9266 0 23.7798C0 23.633 0.0366973 23.5596 0.110092 23.5596C1.11315 23.5596 1.88379 23.2171 2.42202 22.5321C2.98471 21.8471 3.27829 20.8563 3.30275 19.5596ZM29.2844 23.5596C29.3333 23.5596 29.3578 23.633 29.3578 23.7798C29.3578 23.9266 29.3333 24 29.2844 24C28.6483 24 27.9388 23.9878 27.156 23.9633C26.3731 23.9388 25.5535 23.9266 24.6972 23.9266C23.841 23.9266 23.0336 23.9388 22.2752 23.9633C21.5413 23.9878 20.8685 24 20.2569 24C20.2079 24 20.1835 23.9266 20.1835 23.7798C20.1835 23.633 20.2079 23.5596 20.2569 23.5596C21.4312 23.5596 22.1896 23.4006 22.5321 23.0826C22.8746 22.7645 23.0092 22.0795 22.9358 21.0275L22.1651 4.25688L23.7798 1.72476L14.3853 23.7431C14.3609 23.841 14.263 23.8899 14.0917 23.8899C13.9205 23.8899 13.8104 23.841 13.7615 23.7431L3.81651 4.11009C2.93578 2.37308 1.78593 1.50458 0.366972 1.50458C0.293578 1.50458 0.256881 1.43119 0.256881 1.2844C0.256881 1.13761 0.293578 1.06422 0.366972 1.06422C0.831804 1.06422 1.3211 1.07645 1.83486 1.10091C2.37309 1.12538 2.82569 1.13761 3.19266 1.13761C3.73089 1.13761 4.20795 1.12538 4.62385 1.10091C5.06422 1.07645 5.40673 1.06422 5.65138 1.06422C5.99388 1.06422 6.25076 1.18654 6.42202 1.43119C6.61774 1.65137 6.92355 2.16513 7.33945 2.97247L15.5963 19.156L14.0183 21.9449L22.7156 1.98165C22.8624 1.6636 23.0214 1.43119 23.1927 1.2844C23.3639 1.13761 23.5719 1.06422 23.8165 1.06422C24.0367 1.06422 24.2691 1.07645 24.5138 1.10091C24.7829 1.12538 25.1009 1.13761 25.4679 1.13761C26.2018 1.13761 26.8257 1.12538 27.3394 1.10091C27.8532 1.07645 28.3547 1.06422 28.844 1.06422C28.9174 1.06422 28.9541 1.13761 28.9541 1.2844C28.9541 1.43119 28.9174 1.50458 28.844 1.50458C27.7187 1.50458 26.8868 1.71253 26.3486 2.12844C25.8104 2.54434 25.5657 3.25382 25.6147 4.25688L26.422 21.0275C26.4709 21.737 26.5566 22.2752 26.6789 22.6422C26.8257 23.0092 27.0948 23.2538 27.4862 23.3761C27.9021 23.4985 28.5015 23.5596 29.2844 23.5596Z" fill="#333333"/>
</svg>
